<svg version="1.1" id="Layer_1" xmlns="http://www.w3.org/2000/svg" xmlns:xlink="http://www.w3.org/1999/xlink" x="0px" y="0px" width="100%" viewBox="0 0 1081 179" enable-background="new 0 0 1081 179" xml:space="preserve">

<path fill="#FDFDFD" opacity="1.000000" stroke="none" d="
M955.000610,155.002747 
	C948.526245,155.002747 942.551758,155.002747 936.293091,155.002747 
	C936.293091,108.985931 936.293091,63.263908 936.293091,17.210396 
	C937.581055,17.139095 938.862305,17.006731 940.143494,17.006447 
	C959.807617,17.002083 979.474426,16.823332 999.134827,17.097876 
	C1010.365540,17.254705 1021.306335,19.383209 1031.143555,25.222212 
	C1045.561890,33.780319 1051.127686,54.959576 1042.812744,69.604172 
	C1037.768677,78.488091 1029.279907,81.908340 1019.386963,83.463936 
	C1022.643433,84.171837 1025.574585,84.655746 1028.417725,85.453125 
	C1042.002563,89.263153 1050.619141,98.861237 1051.941528,111.515999 
	C1053.720337,128.540131 1047.913940,140.894241 1034.784180,147.817291 
	C1025.473267,152.726730 1015.369568,154.726013 1004.992920,154.899124 
	C988.499451,155.174255 971.998291,154.991714 955.000610,155.002747 
M1004.458435,127.261322 
	C1013.800720,124.914238 1017.924438,120.394287 1017.924377,112.501404 
	C1017.924316,104.614685 1013.851135,98.806953 1004.567261,97.823471 
	C993.304016,96.630310 981.817993,97.540268 970.405518,97.540268 
	C970.405518,107.483002 970.405518,117.712967 970.405518,127.536423 
	C981.709229,127.536423 992.678406,127.536423 1004.458435,127.261322 
M1001.953918,45.163158 
	C991.451538,44.544151 980.949158,43.925144 970.303711,43.297707 
	C970.303711,53.841084 970.303711,63.228905 970.303711,73.516098 
	C980.446960,72.983612 990.393921,72.997009 1000.184998,71.768021 
	C1007.270081,70.878700 1011.494629,65.793800 1012.001221,60.062805 
	C1012.651367,52.708244 1010.136780,48.783466 1001.953918,45.163158 
z" data-index="0" style="opacity: 1;"></path>
<path fill="#FCFDFD" opacity="1.000000" stroke="none" d="
M793.996338,154.838379 
	C782.889160,154.838379 771.781982,154.838379 760.319092,154.838379 
	C760.319092,136.430725 760.319092,118.338333 760.319092,99.938889 
	C744.885559,99.938889 729.806702,99.938889 714.216614,99.938889 
	C714.216614,118.014191 714.216614,136.225906 714.216614,154.718155 
	C702.638489,154.718155 691.565247,154.718155 680.203918,154.718155 
	C680.203918,109.004204 680.203918,63.289185 680.203918,17.284931 
	C691.232605,17.284931 702.309875,17.284931 713.909180,17.284931 
	C713.909180,35.135628 713.909180,53.019093 713.909180,71.133102 
	C729.507202,71.133102 744.587280,71.133102 760.193481,71.133102 
	C760.193481,53.202370 760.193481,35.314232 760.193481,17.008091 
	C771.498657,17.008091 782.284729,17.008091 793.537170,17.542284 
	C794.001221,63.663776 793.998779,109.251076 793.996338,154.838379 
z" data-index="1" style="opacity: 1;"></path>
<path fill="#F34800" opacity="1.000000" stroke="none" d="
M467.998138,16.997150 
	C473.459259,16.997150 478.421570,16.997150 483.655365,16.997150 
	C483.655365,63.011509 483.655365,108.596428 483.655365,154.592346 
	C473.070984,154.592346 462.386139,154.592346 451.097534,154.592346 
	C451.097534,150.290222 451.097534,146.078369 451.097534,140.722382 
	C439.509186,156.753601 424.512543,159.896423 407.560028,155.899719 
	C395.146820,152.973206 386.956055,144.394501 382.192383,132.997131 
	C373.787079,112.887024 373.647858,92.360886 382.247040,72.332611 
	C390.998749,51.949215 412.391724,42.580513 432.683411,50.267990 
	C439.035492,52.674461 444.403961,57.677433 449.936493,61.304279 
	C449.936493,47.635281 449.936493,32.735680 449.936493,16.997150 
	C456.012451,16.997150 461.755890,16.997150 467.998138,16.997150 
M414.141266,120.113472 
	C419.103790,129.964569 424.275421,133.162201 433.649689,132.175522 
	C441.101257,131.391205 446.423920,126.243591 448.593536,116.934258 
	C450.887390,107.092087 451.011597,97.147217 448.237793,87.338112 
	C445.663696,78.234993 440.232697,73.394638 432.497009,72.979309 
	C423.538788,72.498329 417.335602,76.511940 413.891479,85.714882 
	C409.718018,96.866508 409.836853,108.160141 414.141266,120.113472 
z" data-index="2" style="opacity: 1;"></path>
<path fill="#F14700" opacity="1.000000" stroke="none" d="
M26.188560,131.999939 
	C26.188627,93.555351 26.188627,55.610748 26.188627,17.330486 
	C59.109890,17.330486 91.643539,17.330486 124.469780,17.330486 
	C124.469780,26.348570 124.469780,35.256950 124.469780,44.770061 
	C103.299583,44.770061 82.255440,44.770061 60.912945,44.770061 
	C60.912945,54.612595 60.912945,63.857338 60.912945,73.570351 
	C80.749611,73.570351 100.501968,73.570351 120.623276,73.570351 
	C120.623276,83.065132 120.623276,92.100494 120.623276,101.666260 
	C100.748962,101.666260 81.009727,101.666260 60.727779,101.666260 
	C60.727779,119.578522 60.727779,136.977402 60.727779,154.687286 
	C49.103741,154.687286 38.023827,154.687286 26.188494,154.687286 
	C26.188494,147.353546 26.188494,139.926743 26.188560,131.999939 
z" data-index="3"></path>
<path fill="#F24800" opacity="1.000000" stroke="none" d="
M568.427612,64.444382 
	C585.378540,47.263165 613.739258,42.793652 635.220276,53.597897 
	C655.568787,63.832527 664.039917,86.451645 662.062744,111.527260 
	C638.231812,111.527260 614.341797,111.527260 590.542908,111.527260 
	C588.731445,124.577240 600.110718,134.945663 613.197632,132.799789 
	C619.034302,131.842773 624.015869,129.622513 626.622314,123.718262 
	C627.012329,122.834625 628.631226,121.935410 629.647705,121.972633 
	C639.923401,122.348862 650.192017,122.918610 660.878174,123.454903 
	C659.429016,130.589645 656.259766,136.308151 651.821777,141.331924 
	C632.348022,163.376114 579.657715,165.647507 561.361084,131.288788 
	C551.696289,113.139519 551.864807,81.860733 568.427612,64.444382 
M604.505005,92.135239 
	C612.280518,92.135239 620.056030,92.135239 627.793945,92.135239 
	C628.282593,80.508316 621.030518,72.294296 610.532349,71.974594 
	C598.799744,71.617310 590.543396,79.565941 590.147522,92.135315 
	C594.606934,92.135315 599.057800,92.135315 604.505005,92.135239 
z" data-index="4" style="opacity: 1;"></path>
<path fill="#F34800" opacity="1.000000" stroke="none" d="
M154.877563,147.164291 
	C135.661957,132.036697 131.279144,111.930443 135.396713,89.608421 
	C139.006989,70.036507 150.912109,56.769321 170.077744,50.733944 
	C183.455078,46.521336 197.013123,46.769657 210.300781,51.267025 
	C230.834641,58.216972 242.942642,76.020821 244.204590,100.571350 
	C245.679169,129.258820 228.931000,151.375809 200.879578,156.420029 
	C184.736359,159.322906 169.050964,157.221985 154.877563,147.164291 
M207.848587,117.001991 
	C209.932770,106.947662 210.404465,96.891273 207.198059,86.991051 
	C204.195999,77.721703 198.041458,73.001297 189.484879,72.970909 
	C180.419998,72.938705 174.139587,77.489014 171.138794,86.877632 
	C167.759613,97.450104 167.831543,108.204216 171.171173,118.753304 
	C174.405518,128.969772 182.040527,133.535660 192.701889,132.101288 
	C201.115265,130.969360 204.994278,125.014885 207.848587,117.001991 
z" data-index="5" style="opacity: 1; stroke-width: 2px; stroke: rgb(252, 253, 253); visibility: visible; fill: rgb(252, 253, 253);"></path>
<path fill="#F34800" opacity="1.000000" stroke="none" d="
M364.940186,96.273041 
	C365.990051,110.536186 364.035919,123.667351 355.954437,135.293686 
	C344.429474,151.873962 327.769775,157.747940 308.404144,157.430115 
	C298.844208,157.273239 289.613708,155.324326 281.150391,150.550385 
	C260.477417,138.889297 252.859177,117.431801 255.524185,94.691086 
	C257.949463,73.996254 268.533783,58.553215 288.547272,51.692970 
	C309.526459,44.501698 329.977417,46.128170 347.760559,60.916161 
	C358.540894,69.880760 363.611481,82.004196 364.940186,96.273041 
M324.651306,79.937607 
	C314.748322,68.807983 299.113342,70.634102 293.318848,84.130295 
	C288.060516,96.377579 288.274078,109.155373 293.366333,121.496513 
	C296.349335,128.725891 302.136932,132.399750 310.242432,132.388916 
	C318.359070,132.378082 324.245789,128.735657 326.984070,121.385941 
	C332.107635,107.633873 332.440369,93.836983 324.651306,79.937607 
z" data-index="6" style="opacity: 1; visibility: visible; fill: rgb(252, 253, 253);"></path>
<path fill="#FDFEFE" opacity="1.000000" stroke="none" d="
M911.995361,154.837387 
	C902.194702,154.837387 892.394043,154.837387 882.181885,154.837387 
	C881.959045,150.247726 881.739502,145.726746 881.442444,139.608902 
	C876.207581,149.127441 869.572144,154.527191 860.408691,156.352463 
	C837.213379,160.972794 817.861084,151.044998 816.342102,124.910728 
	C814.923645,100.507713 815.899780,75.965431 815.840027,51.484413 
	C815.839294,51.193707 816.078735,50.902409 816.404846,50.156895 
	C826.829346,50.156895 837.448364,50.156895 848.511597,50.696098 
	C848.970093,70.782448 848.952393,90.329742 849.039124,109.876564 
	C849.049927,112.317039 849.614014,114.755066 849.921753,117.194229 
	C851.265137,126.717262 854.829590,130.820480 861.941650,131.030853 
	C870.572571,131.286163 876.160522,126.742989 877.828247,117.782303 
	C878.432861,114.533684 878.683105,111.177124 878.698975,107.867920 
	C878.781921,90.558136 878.737610,73.247742 878.737610,55.937561 
	C878.737610,54.155449 878.737610,52.373337 878.737610,50.156952 
	C889.848938,50.156952 900.460754,50.156952 911.516907,50.696327 
	C911.972656,85.769592 911.984009,120.303490 911.995361,154.837387 
z" data-index="7" style="opacity: 1;"></path>
<path fill="#F24700" opacity="1.000000" stroke="none" d="
M506.281311,154.925781 
	C505.531769,153.799271 505.016266,152.732651 505.014923,151.665390 
	C504.973511,118.704659 504.981323,85.743866 504.992065,52.783089 
	C504.992279,52.131565 505.118073,51.480087 505.220856,50.483982 
	C516.153320,50.483982 527.030334,50.483982 538.335999,50.483982 
	C538.335999,85.130592 538.335999,119.678879 538.335999,154.985382 
	C527.893372,154.985382 517.324219,154.985382 506.281311,154.925781 
z" data-index="8" style="opacity: 1;"></path>
<path fill="#F24800" opacity="1.000000" stroke="none" d="
M518.009033,38.973244 
	C513.362305,38.973240 509.213318,38.973240 504.628418,38.973240 
	C504.628418,30.652130 504.628418,22.602133 504.628418,14.180517 
	C515.821594,14.180517 527.046631,14.180517 538.634277,14.180517 
	C538.634277,22.117903 538.634277,30.183310 538.634277,38.973244 
	C532.004761,38.973244 525.255737,38.973244 518.009033,38.973244 
z" data-index="9"></path>
<path fill="#CC8B00" opacity="1.000000" stroke="none" d="
M794.390747,154.678711 
	C793.998779,109.251076 794.001221,63.663776 794.000000,17.619057 
	C794.330444,18.310381 794.955444,19.458801 794.956726,20.607912 
	C795.005371,64.585251 794.997864,108.562660 794.987244,152.540054 
	C794.987061,153.199738 794.855469,153.859375 794.390747,154.678711 
z" data-index="10"></path>
<path fill="#CC8B00" opacity="1.000000" stroke="none" d="
M912.390137,154.678650 
	C911.984009,120.303490 911.972656,85.769592 911.976196,50.791740 
	C912.325623,51.007854 912.953064,51.668114 912.952637,52.327965 
	C912.930420,86.391960 912.854797,120.455925 912.390137,154.678650 
z" data-index="11"></path>
<path fill="#CC8C03" opacity="1.000000" stroke="none" d="
M849.995178,116.712540 
	C849.614014,114.755066 849.049927,112.317039 849.039124,109.876564 
	C848.952393,90.329742 848.970093,70.782448 848.970581,50.791275 
	C849.322876,52.005585 849.946960,53.662651 849.954346,55.322464 
	C850.044983,75.625015 850.045105,95.927986 849.995178,116.712540 
z" data-index="12"></path>



<path fill="#020000" opacity="1.000000" stroke="none" d="
M604.006836,92.135277 
	C599.057800,92.135315 594.606934,92.135315 590.147522,92.135315 
	C590.543396,79.565941 598.799744,71.617310 610.532349,71.974594 
	C621.030518,72.294296 628.282593,80.508316 627.793945,92.135239 
	C620.056030,92.135239 612.280518,92.135239 604.006836,92.135277 
z" data-index="14" style="opacity: 1; visibility: hidden; fill: rgb(121, 40, 202); stroke-width: 2px; stroke: rgb(13, 153, 255);"></path>


</svg>